<?xml version="1.0" standalone="no"?>
<!DOCTYPE svg PUBLIC "-//W3C//DTD SVG 20010904//EN"
 "http://www.w3.org/TR/2001/REC-SVG-20010904/DTD/svg10.dtd">
<svg version="1.0" xmlns="http://www.w3.org/2000/svg"
 width="1024.000000pt" height="1024.000000pt" viewBox="0 0 1024.000000 1024.000000"
 preserveAspectRatio="xMidYMid meet">

<g transform="translate(0.000000,1024.000000) scale(0.100000,-0.100000)"
fill="#34A853" stroke="none">
<path d="M3310 6616 c-41 -13 -140 -42 -220 -65 -177 -51 -190 -56 -190 -77 0
-17 137 -154 145 -145 3 2 -3 13 -12 23 -13 14 -13 18 -2 13 15 -6 45 -47 31
-43 -9 3 -72 -65 -72 -78 0 -5 13 -9 30 -10 17 -1 27 3 23 9 -3 6 -1 7 6 3 6
-4 9 -12 6 -17 -4 -5 -3 -9 2 -9 4 0 13 -11 19 -24 9 -20 9 -26 -3 -30 -8 -3
-11 -1 -8 4 8 13 -14 52 -26 45 -5 -4 -9 -2 -9 3 0 6 -11 9 -25 8 -14 0 -25
-7 -25 -13 0 -7 -5 -13 -11 -13 -5 0 -7 -5 -4 -10 4 -6 11 -8 16 -5 14 9 23
-25 11 -37 -8 -8 -13 -7 -18 6 -5 14 -9 15 -16 4 -6 -9 -7 -6 -3 9 5 19 3 21
-21 17 -24 -4 -21 1 32 56 33 34 61 67 63 73 2 7 -68 -60 -155 -149 -184 -185
-330 -315 -534 -474 -140 -109 -169 -140 -130 -140 10 0 21 -4 25 -9 3 -6 -4
-8 -17 -6 -12 3 -26 -1 -30 -8 -6 -9 -8 -9 -8 1 0 9 -4 10 -19 0 -10 -6 -17
-17 -14 -24 7 -18 -13 -26 -26 -10 -9 10 -2 19 30 40 22 15 39 30 36 33 -3 2
-41 -20 -84 -51 -186 -130 -518 -314 -726 -402 -45 -19 -90 -44 -99 -55 -47
-56 7 -157 77 -146 81 13 448 191 680 329 375 224 695 472 1017 787 l158 153
59 -51 c56 -49 93 -63 106 -41 8 12 55 437 55 492 0 27 -6 40 -19 48 -11 5
-21 10 -23 9 -2 0 -37 -11 -78 -23z m110 -48 c0 -51 -5 -47 -14 10 -4 29 -3
41 4 37 5 -3 10 -25 10 -47z m-63 36 c-3 -3 -12 -4 -19 -1 -8 3 -5 6 6 6 11 1
17 -2 13 -5z m-52 -14 c-11 -5 -27 -9 -35 -9 -9 0 -8 4 5 9 11 5 27 9 35 9 9
0 8 -4 -5 -9z m-60 -35 c-1 -14 -5 -28 -10 -32 -4 -5 -6 -3 -2 2 3 6 1 17 -4
25 -8 13 -10 13 -18 0 -7 -10 -6 -17 2 -23 8 -6 7 -7 -3 -4 -8 2 -14 10 -12
16 1 6 -6 11 -15 11 -28 0 -63 -12 -59 -19 2 -3 -15 -7 -38 -8 -40 -1 -40 -1
19 18 33 10 73 21 88 23 16 3 31 7 35 10 11 12 18 5 17 -19z m150 -210 c-10
-91 -20 -163 -23 -161 -4 4 14 220 23 271 2 11 4 31 4 44 1 13 4 22 7 18 4 -3
-2 -81 -11 -172z m-395 155 c-8 -5 -24 -9 -35 -9 -16 1 -16 2 5 9 35 11 48 11
30 0z m310 -50 c0 -5 -2 -10 -4 -10 -3 0 -8 5 -11 10 -3 6 -1 10 4 10 6 0 11
-4 11 -10z m-339 -27 c13 -16 12 -17 -3 -4 -10 7 -18 15 -18 17 0 8 8 3 21
-13z m374 -2 c3 -5 1 -12 -5 -16 -5 -3 -10 1 -10 9 0 18 6 21 15 7z m16 -24
c-10 -9 -11 -8 -5 6 3 10 9 15 12 12 3 -3 0 -11 -7 -18z m-38 -57 c3 -11 1
-18 -4 -14 -5 3 -9 12 -9 20 0 20 7 17 13 -6z m-193 -14 c0 -3 -4 -8 -10 -11
-5 -3 -10 -1 -10 4 0 6 5 11 10 11 6 0 10 -2 10 -4z m130 -16 c0 -5 -2 -10 -4
-10 -3 0 -8 5 -11 10 -3 6 -1 10 4 10 6 0 11 -4 11 -10z m95 0 c3 -5 1 -10 -4
-10 -6 0 -11 5 -11 10 0 6 2 10 4 10 3 0 8 -4 11 -10z m-281 -16 c3 -8 2 -12
-4 -9 -6 3 -10 10 -10 16 0 14 7 11 14 -7z m140 -30 c4 -13 2 -21 -6 -21 -7 0
-13 13 -14 29 -1 31 10 27 20 -8z m-154 5 c0 -5 -4 -9 -8 -9 -5 0 -9 7 -9 15
0 8 4 12 9 9 4 -3 8 -9 8 -15z m198 -14 c-3 -3 -9 2 -12 12 -6 14 -5 15 5 6 7
-7 10 -15 7 -18z m-153 5 c3 -5 1 -10 -4 -10 -6 0 -11 5 -11 10 0 6 2 10 4 10
3 0 8 -4 11 -10z m221 -9 l24 -19 -24 2 c-13 0 -22 3 -20 5 2 2 -1 10 -7 18
-17 19 -1 16 27 -6z m-38 -16 c-3 -3 -9 2 -12 12 -6 14 -5 15 5 6 7 -7 10 -15
7 -18z m-177 -38 c-10 -9 -11 -8 -5 6 3 10 9 15 12 12 3 -3 0 -11 -7 -18z
m157 -2 c-3 -3 -9 2 -12 12 -6 14 -5 15 5 6 7 -7 10 -15 7 -18z m-258 5 c0 -5
-4 -10 -10 -10 -5 0 -10 5 -10 10 0 6 5 10 10 10 6 0 10 -4 10 -10z m90 -103
c-58 -56 -87 -83 -66 -61 23 26 34 44 27 48 -6 4 -11 13 -11 19 0 8 3 8 9 -1
4 -8 11 -14 14 -15 12 -4 106 97 100 106 -3 6 -1 7 5 3 7 -4 12 -2 12 5 0 7 3
9 7 5 4 -4 -40 -53 -97 -109z m210 48 c15 9 12 -1 -3 -14 -10 -8 -23 -1 -53
31 l-39 42 42 -33 c24 -18 47 -30 53 -26z m-380 -9 c0 -6 -7 -1 -15 10 -8 11
-15 14 -15 7 0 -7 -7 -13 -17 -13 -14 0 -14 2 2 20 17 19 19 19 31 2 7 -9 14
-21 14 -26z m438 -7 c-3 -33 -4 -33 -8 8 -3 23 -2 39 3 34 5 -5 7 -24 5 -42z
m-328 10 c0 -5 -4 -8 -9 -4 -5 3 -17 -5 -25 -17 -11 -16 -16 -18 -16 -7 0 18
19 39 37 39 7 0 13 -5 13 -11z m-62 -34 c-3 -3 -9 2 -12 12 -6 14 -5 15 5 6 7
-7 10 -15 7 -18z m-134 -10 c-9 -14 -23 -25 -31 -25 -9 0 -3 10 14 25 35 31
37 31 17 0z m66 15 c0 -5 -2 -10 -4 -10 -3 0 -8 5 -11 10 -3 6 -1 10 4 10 6 0
11 -4 11 -10z m434 -19 c-2 -3 -12 3 -22 13 -16 17 -16 18 5 5 12 -7 20 -15
17 -18z m-434 -41 c6 -11 7 -20 2 -20 -6 0 -12 9 -15 20 -3 11 -3 20 -1 20 2
0 8 -9 14 -20z m-100 -12 c10 -21 10 -21 -3 -6 -8 10 -17 15 -20 11 -13 -12
-7 -22 16 -29 21 -7 21 -7 2 -15 -27 -10 -43 -11 -27 0 10 6 10 10 -2 20 -12
10 -13 16 -3 26 17 20 25 18 37 -7z m-67 -38 c-3 -11 -9 -22 -13 -25 -5 -3 -6
-15 -4 -28 5 -22 5 -22 -6 1 -6 15 -15 21 -22 16 -7 -4 0 7 16 24 35 38 36 38
29 12z m94 -2 c-3 -8 -6 -5 -6 6 -1 11 2 17 5 13 3 -3 4 -12 1 -19z m26 -8 c3
-11 1 -23 -4 -26 -5 -3 -9 6 -9 20 0 31 6 34 13 6z m87 4 c0 -2 -12 -4 -27 -4
-21 0 -24 3 -14 9 13 8 41 5 41 -5z m5 -45 c-22 -22 -49 -45 -60 -50 -16 -8
-16 -7 3 8 19 15 20 21 10 33 -11 12 -10 12 5 0 17 -12 18 -11 14 11 -2 13 -2
18 0 12 6 -17 10 -16 35 7 39 36 33 21 -7 -21z m-105 -1 c13 -18 17 -27 8 -21
-8 7 -17 12 -19 10 -2 -1 -3 0 -2 2 1 2 -2 12 -8 22 -15 29 -5 23 21 -13z
m-170 -2 c0 -2 -8 -10 -17 -17 -16 -13 -17 -12 -4 4 13 16 21 21 21 13z m104
-32 c3 -8 2 -12 -4 -9 -6 3 -10 10 -10 16 0 14 7 11 14 -7z m-124 -16 c0 -6
-5 -6 -14 1 -11 9 -18 6 -34 -14 -11 -14 -23 -25 -28 -25 -4 0 5 13 20 29 26
27 56 32 56 9z m98 -3 c-3 -3 -9 2 -12 12 -6 14 -5 15 5 6 7 -7 10 -15 7 -18z
m-25 2 c4 3 7 1 7 -5 0 -6 -8 -10 -18 -9 -10 0 -19 7 -19 14 0 9 4 10 12 3 7
-5 15 -7 18 -3z m117 -42 c-24 -25 -54 -33 -64 -16 -4 5 2 7 12 4 10 -2 29 5
43 16 33 28 37 26 9 -4z m-96 -1 c5 -14 4 -15 -9 -4 -17 14 -19 20 -6 20 5 0
12 -7 15 -16z m-186 -20 c0 -17 -3 -22 -9 -13 -6 10 -16 5 -41 -20 -18 -18
-46 -40 -62 -48 -23 -12 -26 -17 -15 -25 11 -8 11 -9 -2 -5 -9 3 -23 0 -30 -6
-12 -10 -12 -10 -1 3 9 11 149 133 158 139 1 1 2 -11 2 -25z m97 6 c3 -5 1
-10 -4 -10 -6 0 -11 5 -11 10 0 6 2 10 4 10 3 0 8 -4 11 -10z m-35 -24 c-7 -7
-13 -7 -20 0 -6 6 -3 10 10 10 13 0 16 -4 10 -10z m180 0 c0 -2 -7 -7 -16 -10
-8 -3 -12 -2 -9 4 6 10 25 14 25 6z m-223 -28 c-3 -8 -6 -5 -6 6 -1 11 2 17 5
13 3 -3 4 -12 1 -19z m138 -43 c-48 -41 -50 -42 -58 -22 -4 12 -13 24 -18 28
-7 4 -4 9 5 12 14 6 21 -4 17 -25 0 -5 7 -8 16 -8 13 0 14 3 5 12 -19 19 -14
26 18 22 21 -3 34 2 42 16 7 10 15 17 17 14 3 -3 -17 -25 -44 -49z m-194 22
c-6 -8 -7 -18 -3 -22 4 -5 2 -5 -5 -1 -14 8 -6 36 9 36 7 0 6 -5 -1 -13z m23
-8 c-4 -8 1 -9 17 -4 13 3 19 3 13 -2 -6 -4 -16 -17 -23 -28 -9 -14 -11 -15
-7 -3 3 10 1 20 -5 23 -9 6 -4 25 7 25 3 0 2 -5 -2 -11z m88 -28 c8 11 9 11 6
1 -4 -16 -22 -18 -24 -2 -2 7 -1 6 3 -1 4 -8 8 -7 15 2z m-108 -13 c-3 -4 -9
-8 -15 -8 -5 0 -9 4 -9 8 0 5 7 9 15 9 8 0 12 -4 9 -9z m-101 -28 c-3 -12 -8
-19 -11 -16 -5 6 5 36 12 36 2 0 2 -9 -1 -20z m107 0 c5 8 8 4 7 -12 -2 -20
-6 -23 -27 -19 -18 3 -20 6 -8 9 9 2 16 9 14 15 -1 7 -1 8 2 3 2 -4 8 -3 12 4z
m120 6 c0 -2 -8 -10 -17 -17 -16 -13 -17 -12 -4 4 13 16 21 21 21 13z m-173
-26 c-3 -12 0 -20 7 -20 7 0 13 -7 13 -15 0 -12 -3 -12 -16 -2 -26 20 -31 31
-19 44 15 19 21 16 15 -7z m-128 7 c-2 -1 -13 -9 -24 -17 -19 -14 -19 -14 -6
3 7 9 18 17 24 17 6 0 8 -1 6 -3z m41 -28 c0 -15 -18 -19 -23 -6 -3 8 1 14 9
14 8 0 14 -4 14 -8z m180 -19 c-60 -48 -120 -89 -120 -82 1 4 31 28 68 55 67
47 98 63 52 27z m-290 -5 c-9 -11 -9 -15 -1 -15 7 0 9 -4 6 -10 -3 -5 -11 -10
-16 -10 -6 0 -7 5 -4 10 3 6 2 10 -3 10 -12 0 -34 -25 -27 -31 2 -3 -5 -5 -16
-6 -15 -1 -9 7 23 32 47 38 57 43 38 20z m78 -30 c-3 -3 -9 2 -12 12 -6 14 -5
15 5 6 7 -7 10 -15 7 -18z m-44 -3 c3 -5 -1 -9 -9 -9 -8 0 -12 4 -9 9 3 4 7 8
9 8 2 0 6 -4 9 -8z m80 -27 c-3 -39 10 -53 31 -35 8 7 15 10 15 7 0 -3 -15
-16 -32 -28 -22 -16 -28 -17 -19 -6 12 16 8 22 -12 18 -5 -1 -5 4 -1 11 4 7 7
25 6 40 -1 15 1 28 6 28 5 0 7 -16 6 -35z m-49 -35 c4 -6 -1 -7 -11 -3 -13 5
-15 3 -9 -7 5 -9 4 -11 -4 -6 -6 4 -9 12 -6 17 8 12 22 12 30 -1z m-79 -16
c-9 -8 -14 -20 -11 -25 4 -5 1 -9 -4 -9 -14 0 -14 6 -1 31 6 10 15 19 21 19 6
0 3 -7 -5 -16z m-169 -36 c2 -16 0 -19 -6 -9 -6 8 -14 10 -22 5 -12 -6 -12 -5
0 9 18 23 26 21 28 -5z m263 8 c0 -7 -24 -29 -53 -49 -34 -22 -54 -30 -54 -22
0 8 3 13 6 12 16 -3 67 40 64 53 -4 13 -3 13 6 0 9 -12 11 -12 17 3 7 20 14
22 14 3z m-160 0 c0 -2 -7 -6 -15 -10 -8 -3 -15 -1 -15 4 0 6 7 10 15 10 8 0
15 -2 15 -4z m28 -31 c-3 -3 -9 2 -12 12 -6 14 -5 15 5 6 7 -7 10 -15 7 -18z
m-204 -26 c-3 -5 -10 -7 -15 -3 -5 3 -7 10 -3 15 3 5 10 7 15 3 5 -3 7 -10 3
-15z m-64 -24 c-6 -8 -9 -19 -5 -25 7 -12 3 -12 -20 -3 -15 5 -15 8 6 24 29
22 35 24 19 4z m272 -17 c-13 -15 -72 -51 -72 -44 0 5 71 56 79 56 2 0 -1 -6
-7 -12z m-328 -19 c-3 -6 0 -16 7 -21 10 -7 8 -8 -9 -5 -14 3 -20 1 -15 -6 4
-7 0 -8 -11 -4 -10 4 -27 2 -39 -4 -33 -17 -13 1 30 27 44 27 47 28 37 13z
m94 -36 c-9 -10 -18 -25 -21 -33 -4 -11 -6 -10 -6 4 -1 10 7 25 17 32 24 19
28 17 10 -3z m152 3 c0 -3 -4 -8 -10 -11 -5 -3 -10 -1 -10 4 0 6 5 11 10 11 6
0 10 -2 10 -4z m-243 -26 c2 -23 -10 -26 -26 -6 -10 11 -8 15 6 19 10 3 18 5
18 6 1 0 1 -8 2 -19z m-108 -3 c-9 -7 -14 -19 -11 -27 4 -12 2 -13 -9 -2 -12
11 -11 16 5 28 24 17 38 18 15 1z m144 -12 c-3 -9 -8 -14 -10 -11 -3 3 -2 9 2
15 9 16 15 13 8 -4z m157 8 c0 -1 -8 -6 -17 -12 -12 -6 -22 -5 -30 4 -8 9 -5
12 18 11 16 -1 29 -2 29 -3z m-341 -30 c0 -10 -3 -13 -5 -6 -3 7 -21 3 -52
-15 -54 -29 -50 -20 5 14 46 28 53 29 52 7z m96 -10 c-2 -10 -4 -20 -4 -23 -2
-10 -41 -9 -41 1 0 5 9 9 20 9 11 0 19 3 19 8 -2 11 1 22 5 22 2 0 3 -8 1 -17z
m39 -23 c-6 -5 -24 21 -24 34 0 6 6 1 14 -10 8 -10 12 -21 10 -24z m142 25
c-11 -8 -25 -15 -30 -15 -6 1 0 7 14 15 32 19 40 18 16 0z m-286 -19 c0 -2 -7
-7 -16 -10 -8 -3 -12 -2 -9 4 6 10 25 14 25 6z m41 -13 c10 -11 10 -14 2 -9
-7 4 -13 2 -13 -3 0 -6 -5 -11 -11 -11 -8 0 -9 4 0 13 6 8 8 17 4 20 -3 4 -4
7 -1 7 3 0 12 -8 19 -17z m172 -13 c-50 -30 -120 -63 -99 -45 11 8 23 15 28
15 4 0 8 6 8 14 0 8 5 18 12 22 7 4 8 3 4 -4 -4 -7 -1 -12 9 -12 10 0 13 5 9
12 -4 6 -3 8 2 5 6 -3 16 -2 24 4 8 5 20 9 25 9 6 0 -4 -9 -22 -20z m-378 -30
c-3 -5 -11 -10 -16 -10 -6 0 -7 5 -4 10 3 6 11 10 16 10 6 0 7 -4 4 -10z m88
-10 c-3 -12 -8 -19 -11 -16 -5 6 5 36 12 36 2 0 2 -9 -1 -20z m-66 -22 c-3 -7
-5 -2 -5 12 0 14 2 19 5 13 2 -7 2 -19 0 -25z m93 22 c0 -5 -5 -10 -11 -10 -5
0 -7 5 -4 10 3 6 8 10 11 10 2 0 4 -4 4 -10z m25 -10 c3 -5 1 -10 -4 -10 -6 0
-11 5 -11 10 0 6 2 10 4 10 3 0 8 -4 11 -10z m-183 -25 c11 -14 25 -22 31 -18
7 3 8 2 4 -3 -5 -5 -14 -9 -20 -9 -7 -1 -11 -7 -9 -15 3 -12 1 -13 -10 -2 -11
11 -10 14 2 22 12 8 12 10 -2 15 -9 4 -19 13 -22 21 -8 22 4 17 26 -11z m-47
5 c-3 -5 -12 -10 -18 -10 -7 0 -6 4 3 10 19 12 23 12 15 0z m345 5 c0 -2 -24
-17 -52 -31 -36 -18 -48 -21 -39 -10 7 9 20 16 27 16 8 0 14 5 14 11 0 5 4 8
8 5 4 -2 14 -1 22 5 17 10 20 11 20 4z m-392 -29 c-10 -7 -16 -15 -14 -17 3
-2 -5 -4 -17 -5 -12 0 -31 -4 -42 -8 -11 -3 3 5 30 18 57 28 68 31 43 12z
m272 0 c0 -2 -7 -7 -16 -10 -8 -3 -12 -2 -9 4 6 10 25 14 25 6z m-215 -26 c3
-6 -1 -7 -9 -4 -18 7 -21 14 -7 14 6 0 13 -4 16 -10z m-180 -28 c-46 -28 -58
-47 -50 -81 9 -43 28 -54 81 -48 29 3 41 1 33 -4 -8 -5 -31 -9 -51 -9 -28 0
-42 6 -57 26 -35 44 -24 91 27 118 39 22 53 19 17 -2z m265 -4 c0 -6 -6 -5
-15 2 -8 7 -15 14 -15 16 0 2 7 1 15 -2 8 -4 15 -11 15 -16z m88 11 c11 6 24
11 29 11 11 -1 -99 -59 -112 -59 -5 0 -2 4 8 10 9 6 15 14 12 20 -3 5 1 6 9 3
11 -4 16 0 16 12 0 15 2 16 9 5 6 -10 13 -11 29 -2z m-149 -28 c0 -10 -2 -11
-6 -3 -2 6 -14 12 -26 12 -17 0 -19 2 -8 9 19 12 41 3 40 -18z m-79 4 c11 -13
10 -14 -4 -9 -9 3 -16 10 -16 15 0 13 6 11 20 -6z m-55 -7 c5 4 5 1 1 -6 -6
-10 -11 -10 -22 -1 -8 6 -14 14 -14 16 0 3 6 0 13 -6 8 -6 18 -7 22 -3z m111
-17 c0 -11 -4 -17 -8 -15 -4 3 -8 0 -8 -7 0 -7 -2 -10 -5 -8 -6 7 6 49 14 49
4 0 7 -9 7 -19z m54 -15 c0 -2 -7 -7 -16 -10 -8 -3 -12 -2 -9 4 6 10 25 14 25
6z m-52 -27 c-30 -17 -99 -39 -93 -29 3 6 13 10 21 10 8 0 14 5 14 11 0 5 4 7
10 4 5 -3 18 -1 27 4 10 6 23 10 28 10 6 0 2 -4 -7 -10z m-98 -13 c0 -3 -4 -8
-10 -11 -5 -3 -10 -1 -10 4 0 6 5 11 10 11 6 0 10 -2 10 -4z"/>
<path d="M2957 6222 c-19 -20 -23 -37 -7 -27 10 6 33 45 27 45 -2 0 -11 -8
-20 -18z"/>
<path d="M4020 5625 l0 -475 90 0 91 0 -3 325 c-3 297 0 361 15 305 3 -10 60
-155 128 -320 l123 -301 69 3 69 3 25 60 c72 175 221 544 231 570 8 22 11 -55
11 -308 l1 -338 85 3 85 3 3 473 2 472 -113 0 -113 0 -13 -32 c-121 -298 -270
-648 -274 -644 -2 3 -49 112 -103 243 -55 131 -118 282 -140 336 l-41 97 -114
0 -114 0 0 -475z"/>
<path d="M6687 5955 l2 -85 -55 0 -54 0 0 -68 0 -68 53 1 52 0 1 -230 c0 -200
3 -235 18 -268 34 -69 99 -97 229 -97 52 0 77 4 77 12 0 6 -5 40 -11 75 -11
60 -12 63 -40 63 -35 0 -76 18 -83 36 -3 8 -6 103 -6 211 l-2 198 69 1 68 1 3
67 3 66 -73 0 -73 0 2 85 2 85 -92 0 -92 0 2 -85z"/>
<path d="M5391 5875 c-92 -26 -156 -77 -185 -147 -28 -66 -26 -68 70 -68 l87
0 32 38 c32 36 35 37 100 37 61 0 69 -3 91 -28 17 -20 24 -40 24 -72 l0 -44
-42 -5 c-24 -2 -89 -9 -144 -14 -125 -12 -185 -39 -229 -101 -26 -37 -30 -51
-30 -109 0 -127 79 -209 209 -219 91 -8 159 11 207 57 l39 37 0 -44 0 -44 85
3 85 3 1 250 c1 138 -2 266 -6 285 -18 84 -67 141 -149 175 -55 23 -180 28
-245 10z m224 -447 c-14 -88 -63 -138 -143 -146 -87 -8 -139 40 -116 106 19
53 82 75 227 81 l39 1 -7 -42z"/>
<path d="M6111 5874 c-67 -18 -114 -46 -145 -87 -87 -118 -46 -266 88 -316 28
-10 90 -24 137 -31 48 -6 101 -20 118 -31 28 -17 32 -24 29 -56 -4 -45 -39
-73 -100 -80 -60 -7 -116 17 -131 57 l-11 30 -93 0 c-51 0 -93 -3 -93 -7 1
-61 64 -149 134 -186 36 -19 57 -22 171 -22 122 0 133 2 181 27 95 50 143 141
128 239 -15 93 -77 135 -244 167 -132 25 -157 35 -172 67 -23 50 33 105 107
105 41 0 94 -27 106 -54 11 -23 17 -25 101 -28 l90 -3 -6 34 c-22 139 -215
224 -395 175z"/>
<path d="M7337 5880 c-104 -27 -179 -88 -224 -185 -26 -56 -28 -69 -28 -185 0
-116 2 -129 28 -185 57 -122 139 -176 281 -183 50 -3 112 1 141 7 100 22 185
98 201 179 l7 32 -82 0 c-79 0 -83 -1 -107 -30 -35 -41 -93 -56 -160 -41 -75
17 -124 76 -124 152 l0 29 245 0 245 0 0 28 c-1 59 -21 166 -41 211 -25 60
-90 124 -152 151 -55 25 -171 34 -230 20z m170 -160 c39 -24 59 -54 68 -102
l7 -38 -156 0 c-177 0 -175 -2 -133 80 38 76 141 105 214 60z"/>
<path d="M8178 5878 c-40 -11 -128 -81 -128 -103 0 -8 -4 -16 -9 -19 -5 -4 -7
19 -4 54 l6 60 -92 0 -91 0 0 -360 0 -360 90 0 90 0 0 184 c0 101 4 207 10
235 19 101 73 145 178 144 l62 0 0 88 0 89 -37 -1 c-21 -1 -55 -6 -75 -11z"/>
<path d="M3040 5757 l-25 -13 -3 -858 c-2 -789 -1 -861 14 -878 16 -16 36 -18
216 -18 185 0 199 1 218 20 20 20 20 33 20 869 l0 850 -26 20 c-25 20 -40 21
-208 21 -126 0 -189 -4 -206 -13z m25 -14 c-11 -3 -23 -10 -27 -17 -4 -6 -8
-388 -8 -848 0 -702 2 -839 14 -851 11 -10 56 -14 196 -16 115 -1 180 1 176 7
-3 6 2 8 14 5 14 -4 21 1 25 18 3 13 4 400 3 861 -2 460 0 831 4 825 4 -7 8
-389 8 -849 0 -825 0 -838 -20 -858 -19 -19 -33 -20 -205 -20 -172 0 -186 1
-205 20 -20 20 -20 33 -20 856 0 557 3 842 10 855 6 11 20 18 33 18 20 -1 20
-2 2 -6z m113 0 c-10 -2 -28 -2 -40 0 -13 2 -5 4 17 4 22 1 32 -1 23 -4z m79
1 c-3 -3 -12 -4 -19 -1 -8 3 -5 6 6 6 11 1 17 -2 13 -5z m83 -2 c0 -4 -16 -6
-35 -4 -19 2 -35 6 -35 8 0 2 16 4 35 4 19 0 35 -4 35 -8z m50 4 c0 -2 -9 -6
-20 -9 -11 -3 -18 -1 -14 4 5 9 34 13 34 5z m43 -3 c-7 -2 -19 -2 -25 0 -7 3
-2 5 12 5 14 0 19 -2 13 -5z m-123 -26 c0 -7 -10 -13 -21 -14 -21 -2 -21 -1
-3 12 24 18 24 18 24 2z m-193 -3 c-3 -3 -12 -4 -19 -1 -8 3 -5 6 6 6 11 1 17
-2 13 -5z m77 -19 c-4 -8 -11 -12 -16 -9 -6 4 -5 10 3 15 19 12 19 11 13 -6z
m32 -20 c-4 -24 -16 -30 -16 -7 0 12 4 22 9 22 5 0 8 -7 7 -15z m-113 -15 c3
-11 2 -22 -2 -24 -4 -3 -8 6 -9 20 -2 29 4 31 11 4z m286 6 c9 -10 8 -15 -2
-19 -8 -3 -13 3 -13 14 0 23 0 23 15 5z m-336 -19 c3 -8 -1 -14 -8 -14 -7 0
-11 6 -8 14 3 7 6 13 8 13 2 0 5 -6 8 -13z m102 -28 c11 -16 1 -19 -13 -3 -7
8 -8 14 -3 14 5 0 13 -5 16 -11z m49 -18 c3 -5 -1 -11 -9 -14 -9 -4 -12 -1 -8
9 6 16 10 17 17 5z m86 -35 c0 -6 -7 -1 -16 10 -13 16 -15 16 -10 2 7 -22 -1
-23 -20 -3 -14 13 -14 15 0 15 9 0 16 5 16 12 0 14 29 -22 30 -36z m140 40 c0
-3 -4 -8 -10 -11 -5 -3 -10 -1 -10 4 0 6 5 11 10 11 6 0 10 -2 10 -4z m-110
-66 c0 -5 -5 -10 -11 -10 -5 0 -7 5 -4 10 3 6 8 10 11 10 2 0 4 -4 4 -10z
m-250 -50 c0 -5 -4 -10 -10 -10 -5 0 -10 5 -10 10 0 6 5 10 10 10 6 0 10 -4
10 -10z m45 -28 c-3 -3 -11 0 -18 7 -9 10 -8 11 6 5 10 -3 15 -9 12 -12z m280
8 c-3 -5 -1 -10 6 -10 7 0 10 -3 6 -6 -9 -9 -28 6 -22 17 4 5 8 9 11 9 3 0 2
-4 -1 -10z m-302 -24 c10 -8 15 -16 10 -18 -4 -3 -16 3 -25 14 -21 21 -11 24
15 4z m295 -26 c-7 -11 -17 -20 -22 -20 -5 0 -1 9 9 20 10 11 20 20 22 20 2 0
-2 -9 -9 -20z m-194 -6 c5 -14 4 -15 -9 -4 -17 14 -19 20 -6 20 5 0 12 -7 15
-16z m-60 -61 c4 -10 4 -14 0 -10 -4 4 -13 -1 -21 -11 -11 -15 -12 -13 -2 11
14 32 15 32 23 10z m-63 -40 c-9 -15 -10 -14 -7 7 6 35 7 37 12 23 3 -7 1 -20
-5 -30z m19 -93 c0 -5 -2 -10 -4 -10 -3 0 -8 5 -11 10 -3 6 -1 10 4 10 6 0 11
-4 11 -10z m28 -20 c-7 -10 -14 -17 -17 -15 -4 4 18 35 25 35 2 0 -1 -9 -8
-20z m246 -6 c3 -8 2 -12 -4 -9 -6 3 -10 10 -10 16 0 14 7 11 14 -7z m-53 -21
c8 -9 9 -14 3 -10 -13 7 -38 -16 -28 -26 3 -3 -1 -4 -10 -3 -8 1 -18 5 -21 9
-3 4 -2 5 2 2 9 -7 44 26 37 36 -9 16 3 10 17 -8z m-235 -95 l19 -23 -25 20
c-14 11 -27 21 -29 22 -2 2 0 3 6 3 5 0 18 -10 29 -22z m264 -2 c0 -3 -4 -8
-10 -11 -5 -3 -10 -1 -10 4 0 6 5 11 10 11 6 0 10 -2 10 -4z m-200 -28 c0 -6
-6 -5 -15 2 -8 7 -15 14 -15 16 0 2 7 1 15 -2 8 -4 15 -11 15 -16z m33 7 c-3
-9 -8 -14 -10 -11 -3 3 -2 9 2 15 9 16 15 13 8 -4z m142 -5 c3 -5 1 -10 -4
-10 -6 0 -11 5 -11 10 0 6 2 10 4 10 3 0 8 -4 11 -10z m-71 -42 c-3 -4 -9 -8
-15 -8 -5 0 -9 4 -9 8 0 5 7 9 15 9 8 0 12 -4 9 -9z m-164 -58 c0 -5 -2 -10
-4 -10 -3 0 -8 5 -11 10 -3 6 -1 10 4 10 6 0 11 -4 11 -10z m254 -8 c2 -4 -4
-8 -14 -8 -10 0 -16 4 -14 8 3 4 9 8 14 8 5 0 11 -4 14 -8z m-199 -31 c3 -5 2
-12 -3 -15 -5 -3 -9 1 -9 9 0 17 3 19 12 6z m255 -5 c0 -2 -8 -10 -17 -17 -16
-13 -17 -12 -4 4 13 16 21 21 21 13z m-26 -52 c3 -8 2 -12 -4 -9 -6 3 -10 10
-10 16 0 14 7 11 14 -7z m-183 -27 c-10 -9 -11 -8 -5 6 3 10 9 15 12 12 3 -3
0 -11 -7 -18z m133 -13 c5 -14 4 -15 -9 -4 -17 14 -19 20 -6 20 5 0 12 -7 15
-16z m-244 -30 c0 -8 -19 -13 -24 -6 -3 5 1 9 9 9 8 0 15 -2 15 -3z m144 -10
c3 -8 2 -12 -4 -9 -6 3 -10 10 -10 16 0 14 7 11 14 -7z m-95 -80 c14 -12 -19
-1 -35 12 -18 14 -18 14 6 3 14 -6 27 -13 29 -15z m280 -7 c0 -9 -2 -8 -6 1
-2 6 -10 9 -15 6 -7 -4 -8 -2 -4 5 9 13 26 5 25 -12z m-239 -7 c0 -5 -2 -10
-4 -10 -3 0 -8 5 -11 10 -3 6 -1 10 4 10 6 0 11 -4 11 -10z m150 -4 c0 -2 -8
-10 -17 -17 -16 -13 -17 -12 -4 4 13 16 21 21 21 13z m-215 -96 c3 -5 1 -10
-4 -10 -6 0 -11 5 -11 10 0 6 2 10 4 10 3 0 8 -4 11 -10z m195 0 c0 -5 -5 -10
-11 -10 -5 0 -7 5 -4 10 3 6 8 10 11 10 2 0 4 -4 4 -10z m135 -20 c3 -6 -1 -7
-9 -4 -18 7 -21 14 -7 14 6 0 13 -4 16 -10z m-360 -10 c3 -6 -1 -7 -9 -4 -18
7 -21 14 -7 14 6 0 13 -4 16 -10z m305 -14 c-7 -7 -13 -7 -20 0 -6 6 -3 10 10
10 13 0 16 -4 10 -10z m-155 -76 c3 -5 2 -10 -4 -10 -5 0 -13 5 -16 10 -3 6
-2 10 4 10 5 0 13 -4 16 -10z m170 -9 c3 -5 2 -12 -3 -15 -5 -3 -9 1 -9 9 0
17 3 19 12 6z m-232 -58 c-7 -2 -19 -2 -25 0 -7 3 -2 5 12 5 14 0 19 -2 13 -5z
m262 -15 c3 -2 -9 -4 -25 -4 -17 0 -30 3 -30 7 0 8 47 6 55 -3z m-281 -34 c3
-8 2 -12 -4 -9 -6 3 -10 10 -10 16 0 14 7 11 14 -7z m211 -3 c3 -5 2 -12 -3
-15 -5 -3 -9 1 -9 9 0 17 3 19 12 6z m85 -10 c0 -6 -4 -12 -8 -15 -5 -3 -9 1
-9 9 0 8 4 15 9 15 4 0 8 -4 8 -9z m-155 -19 c-3 -3 -11 0 -18 7 -9 10 -8 11
6 5 10 -3 15 -9 12 -12z m-24 -29 c13 -16 12 -17 -3 -4 -17 13 -22 21 -14 21
2 0 10 -8 17 -17z m79 -74 c-7 -11 -14 -18 -17 -15 -3 3 0 12 7 21 18 21 23
19 10 -6z m-46 -19 c-6 -6 -10 -2 -11 12 -2 16 1 18 10 9 7 -7 8 -14 1 -21z
m103 8 c-3 -8 -6 -5 -6 6 -1 11 2 17 5 13 3 -3 4 -12 1 -19z m-272 -8 c3 -6
-1 -7 -9 -4 -18 7 -21 14 -7 14 6 0 13 -4 16 -10z m105 -20 c0 -5 -5 -10 -11
-10 -5 0 -7 5 -4 10 3 6 8 10 11 10 2 0 4 -4 4 -10z m150 -46 c0 -8 -19 -13
-24 -6 -3 5 1 9 9 9 8 0 15 -2 15 -3z m50 2 c0 -3 -4 -8 -10 -11 -5 -3 -10 -1
-10 4 0 6 5 11 10 11 6 0 10 -2 10 -4z m4 -35 c4 -5 -3 -7 -14 -4 -23 6 -26
13 -6 13 8 0 17 -4 20 -9z m-214 -31 c0 -5 -2 -10 -4 -10 -3 0 -8 5 -11 10 -3
6 -1 10 4 10 6 0 11 -4 11 -10z m69 -32 c1 -5 -3 -8 -7 -8 -4 0 -8 12 -9 28
-1 23 -1 24 7 7 5 -11 9 -23 9 -27z m96 32 c8 -13 -5 -13 -25 0 -13 8 -13 10
2 10 9 0 20 -4 23 -10z m-265 -10 c0 -5 -5 -10 -11 -10 -5 0 -7 5 -4 10 3 6 8
10 11 10 2 0 4 -4 4 -10z m317 -12 c-3 -8 -6 -5 -6 6 -1 11 2 17 5 13 3 -3 4
-12 1 -19z m-357 6 c0 -8 -19 -13 -24 -6 -3 5 1 9 9 9 8 0 15 -2 15 -3z m77
-10 c-3 -3 -12 -4 -19 -1 -8 3 -5 6 6 6 11 1 17 -2 13 -5z"/>
<path d="M2396 5285 c-8 -9 -18 -30 -21 -48 -3 -18 -5 -296 -3 -618 3 -561 4
-588 22 -608 18 -20 29 -21 218 -21 185 0 199 1 218 20 20 20 20 33 20 635 0
602 0 615 -20 635 -19 19 -33 20 -219 20 -166 0 -202 -3 -215 -15z m415 -5
c11 -6 18 -20 18 -33 -1 -20 -2 -20 -6 -2 -7 27 -21 35 -67 35 -33 0 -37 -2
-26 -15 11 -13 10 -14 -4 -9 -9 3 -16 10 -16 15 0 15 -244 11 -259 -3 -11 -10
-13 -10 -7 0 10 17 -18 16 -33 -1 -7 -9 -11 -59 -10 -131 0 -65 -2 -121 -5
-124 -3 -3 -6 51 -6 121 0 101 3 129 16 141 13 13 46 16 200 16 109 0 193 -4
205 -10z m-254 -25 c0 -8 -4 -15 -9 -15 -10 0 -11 14 -1 23 9 10 10 9 10 -8z
m61 -10 c-6 -14 -13 -23 -15 -21 -5 5 15 46 22 46 3 0 -1 -11 -7 -25z m49 -31
c3 -8 0 -21 -6 -27 -9 -9 -11 -8 -5 7 5 12 4 17 -3 13 -5 -3 -10 0 -10 8 0 20
16 19 24 -1z m129 1 c-23 -18 -36 -19 -36 -4 0 5 4 8 8 5 4 -2 14 -1 22 5 23
14 27 10 6 -6z m-157 -39 c-3 -3 -11 5 -18 17 -13 21 -12 21 5 5 10 -10 16
-20 13 -22z m66 24 c3 -5 1 -10 -4 -10 -6 0 -11 5 -11 10 0 6 2 10 4 10 3 0 8
-4 11 -10z m-170 -10 c3 -5 1 -10 -4 -10 -6 0 -11 5 -11 10 0 6 2 10 4 10 3 0
8 -4 11 -10z m272 -5 c0 -8 -4 -15 -9 -15 -10 0 -11 14 -1 23 9 10 10 9 10 -8z
m-62 -5 c-3 -5 -2 -10 4 -10 5 0 12 6 14 13 4 9 6 9 6 0 1 -7 -8 -17 -18 -23
-16 -8 -19 -7 -16 8 5 23 4 22 11 22 3 0 2 -4 -1 -10z m-33 -19 c7 10 8 8 3
-8 -7 -26 12 -31 35 -10 12 10 12 9 2 -4 -15 -21 -48 -30 -50 -15 0 6 -2 20
-5 31 -2 11 -2 14 0 6 4 -12 6 -12 15 0z m-282 -1 c0 -5 -2 -10 -4 -10 -3 0
-8 5 -11 10 -3 6 -1 10 4 10 6 0 11 -4 11 -10z m137 -6 c0 -7 -6 -10 -14 -7
-7 3 -13 -1 -13 -8 0 -11 -2 -11 -9 1 -6 8 -8 17 -6 20 7 11 42 6 42 -6z m-80
-9 c0 -8 -4 -12 -9 -9 -5 3 -6 10 -3 15 9 13 12 11 12 -6z m343 -29 c0 -8 -7
-16 -15 -20 -12 -4 -13 -2 -2 14 14 24 17 25 17 6z m-180 -6 c0 -5 -2 -10 -4
-10 -3 0 -8 5 -11 10 -3 6 -1 10 4 10 6 0 11 -4 11 -10z m53 -17 c-7 -2 -19
-2 -25 0 -7 3 -2 5 12 5 14 0 19 -2 13 -5z m-199 -31 c3 -5 -1 -9 -9 -9 -8 0
-12 4 -9 9 3 4 7 8 9 8 2 0 6 -4 9 -8z m324 -32 c-1 -16 -5 -27 -8 -24 -8 9
-6 63 3 57 4 -2 6 -17 5 -33z m-114 19 c3 -3 -4 -5 -14 -6 -11 -1 -22 2 -24 6
-5 8 30 8 38 0z m56 2 c0 -6 -4 -12 -8 -15 -5 -3 -9 1 -9 9 0 8 4 15 9 15 4 0
8 -4 8 -9z m-150 -5 c0 -2 -7 -7 -16 -10 -8 -3 -12 -2 -9 4 6 10 25 14 25 6z
m-153 -38 c2 -17 0 -19 -7 -8 -5 8 -6 18 -4 22 8 12 10 10 11 -14z m360 -40
c-3 -8 -6 -5 -6 6 -1 11 2 17 5 13 3 -3 4 -12 1 -19z m-430 -20 c-3 -7 -5 -2
-5 12 0 14 2 19 5 13 2 -7 2 -19 0 -25z m68 22 c3 -6 -1 -7 -9 -4 -18 7 -21
14 -7 14 6 0 13 -4 16 -10z m245 -20 c0 -5 -5 -10 -11 -10 -5 0 -7 5 -4 10 3
6 8 10 11 10 2 0 4 -4 4 -10z m65 -20 c3 -5 1 -10 -4 -10 -6 0 -11 5 -11 10 0
6 2 10 4 10 3 0 8 -4 11 -10z m-378 -112 c-2 -24 -4 -7 -4 37 0 44 2 63 4 43
2 -21 2 -57 0 -80z m430 80 c-3 -7 -5 -2 -5 12 0 14 2 19 5 13 2 -7 2 -19 0
-25z m-11 -54 c-19 -19 -21 -11 -4 16 7 11 14 16 16 10 2 -5 -4 -17 -12 -26z
m-355 3 c-6 -8 -7 -18 -3 -22 4 -5 1 -5 -6 -1 -10 6 -10 11 -1 22 6 8 14 14
16 14 3 0 0 -6 -6 -13z m369 -26 c0 -13 -6 -19 -19 -18 -11 0 -17 5 -15 9 3 5
10 6 15 3 5 -4 9 1 9 9 0 9 2 16 5 16 3 0 5 -9 5 -19z m-198 -35 c10 6 11 4 0
-7 -10 -11 -15 -10 -30 6 -15 17 -15 18 0 6 9 -7 23 -9 30 -5z m146 -21 c-3
-3 -9 2 -12 12 -6 14 -5 15 5 6 7 -7 10 -15 7 -18z m-381 -102 c-2 -21 -4 -4
-4 37 0 41 2 58 4 38 2 -21 2 -55 0 -75z m336 62 c-3 -9 -8 -14 -10 -11 -3 3
-2 9 2 15 9 16 15 13 8 -4z m-263 -7 c0 -11 -28 -10 -35 1 -3 6 4 9 15 8 11
-1 20 -5 20 -9z m124 -24 c3 -8 2 -12 -4 -9 -6 3 -10 10 -10 16 0 14 7 11 14
-7z m6 -34 c0 -5 -2 -10 -4 -10 -3 0 -8 5 -11 10 -3 6 -1 10 4 10 6 0 11 -4
11 -10z m154 -41 c-3 -5 -10 -7 -15 -3 -5 3 -7 10 -3 15 3 5 10 7 15 3 5 -3 7
-10 3 -15z m-130 -4 c3 -8 1 -15 -4 -15 -6 0 -10 7 -10 15 0 8 2 15 4 15 2 0
6 -7 10 -15z m-227 -177 c-2 -35 -3 -7 -3 62 0 69 1 97 3 63 2 -35 2 -91 0
-125z m81 131 c-3 -8 -7 -3 -11 10 -4 17 -3 21 5 13 5 -5 8 -16 6 -23z m53
-12 c-10 -9 -11 -8 -5 6 3 10 9 15 12 12 3 -3 0 -11 -7 -18z m259 -2 c11 -16
11 -18 0 -8 -11 10 -17 10 -28 0 -13 -10 -14 -9 -1 10 7 12 14 21 14 20 0 -1
7 -11 15 -22z m37 -7 c-3 -7 -5 -2 -5 12 0 14 2 19 5 13 2 -7 2 -19 0 -25z
m-219 -3 c-3 -3 -9 2 -12 12 -6 14 -5 15 5 6 7 -7 10 -15 7 -18z m-133 -3 c-3
-3 -11 0 -18 7 -9 10 -8 11 6 5 10 -3 15 -9 12 -12z m82 -4 c-3 -8 -6 -5 -6 6
-1 11 2 17 5 13 3 -3 4 -12 1 -19z m-77 -34 c0 -8 -5 -12 -10 -9 -6 4 -8 11
-5 16 9 14 15 11 15 -7z m113 -42 c-10 -10 -20 -17 -22 -16 -6 5 20 34 30 34
5 0 1 -8 -8 -18z m77 -2 c-6 -11 -13 -20 -16 -20 -2 0 0 9 6 20 6 11 13 20 16
20 2 0 0 -9 -6 -20z m-93 -52 c-3 -8 -6 -5 -6 6 -1 11 2 17 5 13 3 -3 4 -12 1
-19z m33 2 c0 -5 -5 -10 -11 -10 -5 0 -7 5 -4 10 3 6 8 10 11 10 2 0 4 -4 4
-10z m50 6 c0 -2 -7 -7 -16 -10 -8 -3 -12 -2 -9 4 6 10 25 14 25 6z m67 -38
c2 -12 1 -19 -2 -16 -3 3 -8 16 -10 28 -2 12 -1 20 2 16 4 -4 8 -16 10 -28z
m-123 -4 c5 -14 4 -15 -9 -4 -17 14 -19 20 -6 20 5 0 12 -7 15 -16z m41 -2
c-3 -3 -11 0 -18 7 -9 10 -8 11 6 5 10 -3 15 -9 12 -12z m-82 -9 c-7 -2 -19
-2 -25 0 -7 3 -2 5 12 5 14 0 19 -2 13 -5z m-155 -342 c1 -2 8 2 16 8 11 9 16
9 22 0 4 -8 3 -9 -4 -5 -7 4 -12 2 -12 -4 0 -8 53 -11 190 -8 156 2 192 6 200
18 6 9 10 10 10 3 0 -26 -43 -33 -217 -33 -240 0 -224 -15 -221 193 l2 162 6
-165 c4 -91 7 -167 8 -169z m390 294 c-3 -3 -9 2 -12 12 -6 14 -5 15 5 6 7 -7
10 -15 7 -18z m-171 -31 c-3 -3 -12 -4 -19 -1 -8 3 -5 6 6 6 11 1 17 -2 13 -5z
m78 -4 c3 -5 1 -10 -4 -10 -6 0 -11 5 -11 10 0 6 2 10 4 10 3 0 8 -4 11 -10z
m-235 -10 c0 -5 -2 -10 -4 -10 -3 0 -8 5 -11 10 -3 6 -1 10 4 10 6 0 11 -4 11
-10z m73 -5 c-3 -9 -8 -14 -10 -11 -3 3 -2 9 2 15 9 16 15 13 8 -4z m-71 -27
c-18 -18 -15 -30 6 -24 12 4 19 1 19 -8 0 -14 -21 -11 -44 6 -7 5 -13 4 -16
-4 -3 -7 -4 -3 -4 8 1 13 6 20 13 17 7 -2 15 0 19 6 3 6 9 11 13 11 3 0 1 -5
-6 -12z m83 2 c-3 -5 -12 -10 -18 -10 -7 0 -6 4 3 10 19 12 23 12 15 0z m186
-33 c-10 -9 -11 -8 -5 6 3 10 9 15 12 12 3 -3 0 -11 -7 -18z m-254 -33 c-3 -3
-12 -4 -19 -1 -8 3 -5 6 6 6 11 1 17 -2 13 -5z m-1 -63 c-9 -8 -18 -12 -22 -9
-9 10 3 25 21 25 14 0 14 -2 1 -16z m341 -23 c-3 -7 -5 -2 -5 12 0 14 2 19 5
13 2 -7 2 -19 0 -25z m-137 2 c0 -5 -5 -10 -11 -10 -5 0 -7 5 -4 10 3 6 8 10
11 10 2 0 4 -4 4 -10z m75 0 c-3 -5 -1 -10 4 -10 6 0 11 -5 11 -11 0 -8 -5 -8
-15 1 -13 11 -12 30 1 30 3 0 2 -4 -1 -10z m-224 -27 c-8 -15 -10 -15 -11 -2
0 17 10 32 18 25 2 -3 -1 -13 -7 -23z"/>
<path d="M4250 4957 c-119 -27 -213 -100 -238 -185 -16 -53 -15 -145 2 -186
38 -91 115 -138 304 -188 129 -33 186 -58 202 -87 13 -26 13 -77 -1 -103 -29
-54 -182 -77 -265 -39 -45 20 -84 63 -84 92 0 17 -9 19 -96 19 l-97 0 7 -47
c23 -168 221 -277 447 -245 177 25 283 119 296 261 7 75 -11 134 -54 182 -50
55 -110 83 -264 124 -150 40 -158 44 -194 87 -62 74 11 158 139 158 30 0 67
-5 83 -11 40 -15 81 -57 88 -91 l7 -29 91 3 92 3 -3 35 c-10 99 -86 191 -190
230 -70 26 -197 34 -272 17z"/>
<path d="M6800 4475 l0 -475 95 0 95 0 0 113 c0 113 0 113 30 142 16 16 31 27
33 24 2 -2 47 -66 101 -141 l97 -138 110 0 109 0 -54 78 c-29 42 -92 133 -139
201 l-86 124 125 153 c68 84 124 155 124 158 0 3 -47 6 -104 6 l-103 0 -122
-151 -121 -151 0 266 0 266 -95 0 -95 0 0 -475z"/>
<path d="M7512 4942 c1 -4 65 -109 140 -233 76 -123 138 -228 138 -234 0 -5
-67 -115 -149 -242 l-150 -233 113 0 113 0 103 169 102 170 102 -170 101 -169
112 0 111 0 -146 232 c-80 128 -145 237 -145 243 0 5 63 109 140 230 76 121
142 226 147 233 5 9 -17 12 -101 12 l-108 0 -104 -170 c-57 -94 -106 -168
-109 -165 -4 3 -49 79 -102 168 l-96 162 -108 3 c-59 1 -106 -1 -104 -6z"/>
<path d="M1800 4893 c-8 -3 -23 -12 -32 -21 -17 -14 -18 -47 -18 -433 l0 -418
22 -15 c18 -13 57 -16 215 -16 211 0 217 2 228 63 3 18 5 206 3 419 -3 356 -4
389 -21 405 -15 16 -40 18 -200 20 -100 1 -189 0 -197 -4z m385 -22 c3 -5 1
-12 -5 -16 -5 -3 -10 -1 -10 4 0 16 -150 15 -151 -1 0 -10 -2 -10 -6 0 -3 7
-24 12 -55 12 -40 0 -49 -3 -45 -14 4 -10 1 -13 -8 -9 -8 3 -12 9 -9 15 3 5
-18 8 -53 6 -40 -2 -57 -7 -55 -15 1 -7 -2 -13 -8 -13 -5 0 -9 -44 -8 -105 0
-75 3 -103 12 -98 6 3 6 0 -1 -8 -9 -8 -13 -44 -13 -101 0 -64 3 -88 13 -88 9
0 9 -2 -1 -8 -16 -11 -14 -195 2 -185 6 4 6 0 -1 -8 -12 -15 -16 -138 -6 -191
5 -29 28 -38 36 -15 2 6 3 4 2 -5 -2 -10 1 -18 6 -18 5 0 9 6 9 13 0 9 2 9 9
-1 6 -11 43 -13 165 -10 86 2 156 -1 156 -5 0 -5 -84 -7 -186 -5 -172 3 -187
4 -200 23 -22 30 -16 831 6 845 19 13 397 13 405 1z m-311 -36 c-4 -8 -11 -15
-16 -15 -6 0 -5 6 2 15 7 8 14 15 16 15 2 0 1 -7 -2 -15z m181 -3 c-3 -3 -11
0 -18 7 -9 10 -8 11 6 5 10 -3 15 -9 12 -12z m142 -4 c-3 -8 -6 -5 -6 6 -1 11
2 17 5 13 3 -3 4 -12 1 -19z m-280 -41 c-3 -7 -6 -4 -6 6 -1 10 -5 16 -10 13
-10 -7 -23 19 -14 28 9 9 35 -33 30 -47z m200 31 c-3 -8 -6 -5 -6 6 -1 11 2
17 5 13 3 -3 4 -12 1 -19z m-113 -4 c3 -8 2 -12 -4 -9 -6 3 -10 10 -10 16 0
14 7 11 14 -7z m-154 -15 c0 -5 -4 -7 -10 -4 -5 3 -10 1 -10 -4 0 -6 -4 -11
-10 -11 -5 0 -7 7 -4 15 7 17 34 21 34 4z m45 -18 c-6 -5 -25 10 -25 20 0 5 6
4 14 -3 8 -7 12 -15 11 -17z m50 19 c3 -5 1 -10 -4 -10 -6 0 -11 5 -11 10 0 6
2 10 4 10 3 0 8 -4 11 -10z m167 -14 c3 3 8 1 12 -4 11 -18 -25 -8 -41 12 -18
21 -18 21 3 3 11 -9 23 -14 26 -11z m38 14 c0 -5 -2 -10 -4 -10 -3 0 -8 5 -11
10 -3 6 -1 10 4 10 6 0 11 -4 11 -10z m50 0 c0 -5 -5 -10 -11 -10 -5 0 -7 5
-4 10 3 6 8 10 11 10 2 0 4 -4 4 -10z m-138 -37 c-6 -3 -9 -10 -6 -15 4 -7 2
-8 -5 -4 -9 6 -9 11 0 22 6 8 15 12 18 8 3 -4 0 -9 -7 -11z m138 2 c0 -8 -4
-15 -10 -15 -5 0 -7 7 -4 15 4 8 8 15 10 15 2 0 4 -7 4 -15z m-290 -5 c0 -5
-12 -10 -27 -9 l-28 1 25 8 c14 4 26 8 28 9 1 1 2 -3 2 -9z m92 -37 c-3 -16
-7 -22 -10 -15 -4 13 4 42 11 42 2 0 2 -12 -1 -27z m163 17 c3 -5 -1 -10 -9
-10 -9 0 -16 -4 -16 -10 0 -5 -5 -10 -10 -10 -7 0 -7 6 0 20 12 22 25 26 35
10z m33 -277 c-2 -241 -3 -257 -8 -118 -5 163 -2 395 5 395 3 0 4 -125 3 -277z
m-228 257 c0 -5 -2 -10 -4 -10 -3 0 -8 5 -11 10 -3 6 -1 10 4 10 6 0 11 -4 11
-10z m-133 -15 c0 -8 -4 -12 -9 -9 -5 3 -6 10 -3 15 9 13 12 11 12 -6z m273 0
c7 -9 8 -15 2 -15 -5 0 -12 7 -16 15 -3 8 -4 15 -2 15 2 0 9 -7 16 -15z m60 5
c0 -5 -2 -10 -4 -10 -3 0 -8 5 -11 10 -3 6 -1 10 4 10 6 0 11 -4 11 -10z
m-220 -140 c0 -5 -10 -15 -22 -21 l-23 -12 20 21 c23 24 25 25 25 12z m-96
-46 c3 -8 2 -12 -4 -9 -6 3 -10 10 -10 16 0 14 7 11 14 -7z m236 -4 c0 -5 -2
-10 -4 -10 -3 0 -8 5 -11 10 -3 6 -1 10 4 10 6 0 11 -4 11 -10z m-260 -30 c0
-5 -5 -10 -11 -10 -5 0 -7 5 -4 10 3 6 8 10 11 10 2 0 4 -4 4 -10z m100 4 c0
-8 -19 -13 -24 -6 -3 5 1 9 9 9 8 0 15 -2 15 -3z m160 0 c0 -8 -19 -13 -24 -6
-3 5 1 9 9 9 8 0 15 -2 15 -3z m-193 -20 c-3 -3 -12 -4 -19 -1 -8 3 -5 6 6 6
11 1 17 -2 13 -5z m73 -10 c0 -8 -5 -12 -10 -9 -6 4 -8 11 -5 16 9 14 15 11
15 -7z m-114 -6 c4 -7 4 -10 -1 -6 -4 4 -15 2 -24 -5 -14 -11 -14 -10 -2 6 16
20 18 21 27 5z m50 -18 c0 -12 -4 -16 -9 -11 -5 5 -6 14 -3 20 10 15 12 14 12
-9z m99 -10 c3 -6 -1 -7 -9 -4 -18 7 -21 14 -7 14 6 0 13 -4 16 -10z m91 -28
c-17 -16 -18 -16 -5 5 7 12 15 20 18 17 3 -2 -3 -12 -13 -22z m-126 14 c0 -2
-8 -10 -17 -17 -16 -13 -17 -12 -4 4 13 16 21 21 21 13z m-65 -24 c-3 -3 -11
0 -18 7 -9 10 -8 11 6 5 10 -3 15 -9 12 -12z m-100 -12 c-3 -5 -12 -10 -18
-10 -7 0 -6 4 3 10 19 12 23 12 15 0z m359 -26 c3 -8 2 -12 -4 -9 -6 3 -10 10
-10 16 0 14 7 11 14 -7z m-309 -14 c-3 -5 -12 -10 -18 -10 -7 0 -6 4 3 10 19
12 23 12 15 0z m142 -65 c9 -24 -1 -27 -15 -5 -8 13 -8 20 -2 20 6 0 13 -7 17
-15z m123 -15 c0 -5 -5 -10 -11 -10 -5 0 -7 5 -4 10 3 6 8 10 11 10 2 0 4 -4
4 -10z m20 -10 c-6 -11 -12 -20 -14 -20 -2 0 -2 9 1 20 3 11 9 20 15 20 5 0 4
-9 -2 -20z m-83 -22 c-3 -8 -6 -5 -6 6 -1 11 2 17 5 13 3 -3 4 -12 1 -19z
m-177 -43 c0 -8 -4 -16 -9 -19 -5 -4 -7 3 -4 14 4 16 2 19 -13 14 -15 -5 -16
-4 -4 4 17 12 30 7 30 -13z m260 0 c0 -9 -6 -12 -16 -8 -13 5 -13 7 -2 14 17
11 18 11 18 -6z m-172 -20 c-3 -3 -9 2 -12 12 -6 14 -5 15 5 6 7 -7 10 -15 7
-18z m228 -142 c-3 -7 -11 -13 -17 -13 -7 0 -9 3 -6 6 3 4 2 16 -4 28 -10 21
-10 21 6 1 15 -19 16 -16 15 50 -2 96 3 107 7 16 2 -41 2 -80 -1 -88z m-136
125 c0 7 5 10 11 6 8 -4 7 -9 -2 -15 -14 -9 -39 7 -39 24 0 6 7 2 15 -9 9 -12
14 -14 15 -6z m-32 -23 c-3 -3 -9 2 -12 12 -6 14 -5 15 5 6 7 -7 10 -15 7 -18z
m-198 5 c0 -5 -2 -10 -4 -10 -3 0 -8 5 -11 10 -3 6 -1 10 4 10 6 0 11 -4 11
-10z m328 -25 c-3 -3 -9 2 -12 12 -6 14 -5 15 5 6 7 -7 10 -15 7 -18z m-91 0
c0 -8 -7 -15 -15 -15 -12 0 -12 3 -2 15 7 8 13 15 15 15 1 0 2 -7 2 -15z m33
11 c0 -3 -4 -8 -10 -11 -5 -3 -10 -1 -10 4 0 6 5 11 10 11 6 0 10 -2 10 -4z
m-144 -36 c0 -12 -4 -16 -9 -11 -5 5 -6 14 -3 20 10 15 12 14 12 -9z m88 -13
c7 -6 6 -7 -4 -4 -8 2 -16 12 -17 23 -2 13 -1 15 4 4 3 -8 11 -19 17 -23z m57
0 c-10 -9 -11 -8 -5 6 3 10 9 15 12 12 3 -3 0 -11 -7 -18z m54 13 c3 -5 1 -10
-4 -10 -6 0 -11 5 -11 10 0 6 2 10 4 10 3 0 8 -4 11 -10z m-260 -21 c11 -16 1
-19 -13 -3 -7 8 -8 14 -3 14 5 0 13 -5 16 -11z m105 -9 c12 -7 12 -12 2 -22
-9 -9 -12 -9 -12 4 0 9 -6 19 -12 21 -7 3 -8 6 -3 6 6 0 17 -4 25 -9z m75 -20
c3 -5 -1 -10 -10 -10 -9 0 -13 5 -10 10 3 6 8 10 10 10 2 0 7 -4 10 -10z"/>
<path d="M4890 4805 l0 -85 -55 0 -55 0 0 -71 0 -70 53 2 52 3 5 -239 c3 -155
9 -247 17 -260 38 -66 104 -95 216 -95 46 0 86 2 88 5 3 2 0 36 -5 75 l-10 70
-38 0 c-28 0 -46 7 -63 25 -25 24 -25 25 -25 222 l0 199 70 -4 70 -4 0 71 0
71 -70 0 -70 0 0 85 0 85 -90 0 -90 0 0 -85z"/>
<path d="M5491 4711 c-57 -22 -68 -29 -119 -75 -131 -120 -134 -409 -6 -546
142 -152 411 -140 536 25 53 69 72 139 71 255 0 122 -26 194 -92 260 -71 71
-128 94 -241 97 -75 3 -106 -1 -149 -16z m213 -151 c18 -10 43 -38 56 -62 22
-37 25 -55 25 -138 0 -83 -3 -101 -25 -139 -32 -57 -79 -85 -142 -85 -61 0
-95 24 -128 90 -21 41 -25 63 -25 134 0 100 26 166 78 199 42 27 119 28 161 1z"/>
<path d="M6266 4710 c-106 -41 -172 -112 -202 -219 -23 -77 -15 -249 14 -313
31 -70 92 -131 165 -163 53 -24 75 -29 152 -29 76 0 99 4 145 25 100 46 145
103 168 207 l10 42 -87 0 -87 0 -12 -35 c-42 -115 -209 -121 -266 -10 -30 57
-30 222 -1 280 30 60 78 88 142 83 64 -6 101 -29 122 -79 l16 -39 83 0 82 0 0
28 c0 80 -102 200 -193 227 -71 21 -190 19 -251 -5z"/>
</g>
</svg>
